<svg xmlns="http://www.w3.org/2000/svg" width="48" height="48" viewBox="0 0 48 48" fill="none">
  <!-- Shield shape - KMU blue -->
  <path d="M6 4C6 2.89543 6.89543 2 8 2H40C41.1046 2 42 2.89543 42 4V28C42 34.6274 33.9411 44 24 46C14.0589 44 6 34.6274 6 28V4Z" fill="#003876"/>
  <path d="M6 4C6 2.89543 6.89543 2 8 2H40C41.1046 2 42 2.89543 42 4V28C42 34.6274 33.9411 44 24 46C14.0589 44 6 34.6274 6 28V4Z" fill="url(#grad)" fill-opacity="0.3"/>

  <!-- Code brackets < / > -->
  <text x="24" y="29" text-anchor="middle" font-family="monospace" font-weight="700" font-size="18" fill="#ffffff" letter-spacing="-1">&lt;/&gt;</text>

  <!-- Top accent line -->
  <rect x="6" y="2" width="36" height="3" rx="1" fill="#4A90D9" fill-opacity="0.6"/>

  <defs>
    <linearGradient id="grad" x1="24" y1="2" x2="24" y2="46" gradientUnits="userSpaceOnUse">
      <stop offset="0" stop-color="#4A90D9"/>
      <stop offset="1" stop-color="#003876"/>
    </linearGradient>
  </defs>
</svg>
